<svg width="25" height="24" viewBox="0 0 25 24" fill="none" xmlns="http://www.w3.org/2000/svg">
<path fill-rule="evenodd" clip-rule="evenodd" d="M7.92226 19.8203C8.34426 19.8203 8.68726 20.1633 8.68726 20.5853C8.68726 21.0073 8.34426 21.3493 7.92226 21.3493C7.50026 21.3493 7.15826 21.0073 7.15826 20.5853C7.15826 20.1633 7.50026 19.8203 7.92226 19.8203Z" stroke="white" stroke-width="1.5" stroke-linecap="round" stroke-linejoin="round"/>
<path fill-rule="evenodd" clip-rule="evenodd" d="M19.1747 19.8203C19.5967 19.8203 19.9397 20.1633 19.9397 20.5853C19.9397 21.0073 19.5967 21.3493 19.1747 21.3493C18.7527 21.3493 18.4097 21.0073 18.4097 20.5853C18.4097 20.1633 18.7527 19.8203 19.1747 19.8203Z" stroke="white" stroke-width="1.5" stroke-linecap="round" stroke-linejoin="round"/>
<path d="M3.24988 3.25L5.32988 3.61L6.29288 15.083C6.37088 16.018 7.15188 16.736 8.08988 16.736H19.0019C19.8979 16.736 20.6579 16.078 20.7869 15.19L21.7359 8.632C21.8529 7.823 21.2259 7.099 20.4089 7.099H5.66388" stroke="white" stroke-width="1.5" stroke-linecap="round" stroke-linejoin="round"/>
<path d="M14.6254 10.7949H17.3984" stroke="white" stroke-width="1.5" stroke-linecap="round" stroke-linejoin="round"/>
</svg>
