<svg width="25" height="24" viewBox="0 0 25 24" fill="none" xmlns="http://www.w3.org/2000/svg">
<path d="M12.52 2.91016C9.21 2.91016 6.52 5.60016 6.52 8.91016V11.8002C6.52 12.4102 6.26 13.3402 5.95 13.8602L4.8 15.7702C4.09 16.9502 4.58 18.2602 5.88 18.7002C10.19 20.1402 14.84 20.1402 19.15 18.7002C20.36 18.3002 20.89 16.8702 20.23 15.7702L19.08 13.8602C18.78 13.3402 18.52 12.4102 18.52 11.8002V8.91016C18.52 5.61016 15.82 2.91016 12.52 2.91016Z" stroke="#5144DB" stroke-width="1.5" stroke-miterlimit="10" stroke-linecap="round"/>
<path d="M14.37 3.19994C14.06 3.10994 13.74 3.03994 13.41 2.99994C12.45 2.87994 11.53 2.94994 10.67 3.19994C10.96 2.45994 11.68 1.93994 12.52 1.93994C13.36 1.93994 14.08 2.45994 14.37 3.19994Z" stroke="#5144DB" stroke-width="1.5" stroke-miterlimit="10" stroke-linecap="round" stroke-linejoin="round"/>
<path d="M15.52 19.0601C15.52 20.7101 14.17 22.0601 12.52 22.0601C11.7 22.0601 10.94 21.7201 10.4 21.1801C9.85999 20.6401 9.51999 19.8801 9.51999 19.0601" stroke="#5144DB" stroke-width="1.5" stroke-miterlimit="10"/>
</svg>
