<svg width="25" height="25" viewBox="0 0 25 25" fill="none" xmlns="http://www.w3.org/2000/svg">
<path fill-rule="evenodd" clip-rule="evenodd" d="M9.66611 7.0003C9.66611 8.74808 8.24833 10.167 6.49945 10.167C4.75056 10.167 3.33278 8.74808 3.33278 7.0003C3.33278 5.25141 4.75056 3.83252 6.49945 3.83252C8.24833 3.83252 9.66611 5.25141 9.66611 7.0003Z" stroke="white" stroke-width="1.5" stroke-linecap="round" stroke-linejoin="round"/>
<path d="M14.052 7.00026H21.6664" stroke="white" stroke-width="1.5" stroke-linecap="round" stroke-linejoin="round"/>
<path fill-rule="evenodd" clip-rule="evenodd" d="M15.3335 18.0724C15.3335 16.3235 16.7512 14.9058 18.5001 14.9058C20.249 14.9058 21.6668 16.3235 21.6668 18.0724C21.6668 19.8213 20.249 21.2391 18.5001 21.2391C16.7512 21.2391 15.3335 19.8213 15.3335 18.0724Z" stroke="white" stroke-width="1.5" stroke-linecap="round" stroke-linejoin="round"/>
<path d="M10.9477 18.0724H3.33322" stroke="white" stroke-width="1.5" stroke-linecap="round" stroke-linejoin="round"/>
</svg>
