<svg width="44" height="44" viewBox="0 0 44 44" fill="none" xmlns="http://www.w3.org/2000/svg">
<path fill-rule="evenodd" clip-rule="evenodd" d="M22.3966 36.4765C24.5594 35.4016 34.8333 29.789 34.8333 20.1666C34.8333 13.079 29.0876 7.33331 22 7.33331C14.9123 7.33331 9.16663 13.079 9.16663 20.1666C9.16663 29.789 19.4405 35.4016 21.6033 36.4765C21.8584 36.6033 22.1415 36.6033 22.3966 36.4765ZM22 25.6666C25.0375 25.6666 27.5 23.2042 27.5 20.1666C27.5 17.1291 25.0375 14.6666 22 14.6666C18.9624 14.6666 16.5 17.1291 16.5 20.1666C16.5 23.2042 18.9624 25.6666 22 25.6666Z" fill="#5144DB"/>
</svg>
