<svg width="24" height="24" viewBox="0 0 24 24" fill="none" xmlns="http://www.w3.org/2000/svg">
<circle cx="12" cy="12" r="11.5" stroke="#DDDAF8"/>
<path d="M11.2812 13.3203C11.2812 12.8828 11.3802 12.487 11.5781 12.1328C11.776 11.7734 12.0156 11.4792 12.2969 11.25C12.5781 11.0208 12.8594 10.7943 13.1406 10.5703C13.4271 10.3464 13.6667 10.0911 13.8594 9.80469C14.0573 9.51302 14.1562 9.19271 14.1562 8.84375C14.1562 8.39583 13.9844 8.01823 13.6406 7.71094C13.3021 7.39844 12.862 7.24219 12.3203 7.24219C11.9766 7.24219 11.6641 7.29948 11.3828 7.41406C11.1016 7.52344 10.8828 7.65625 10.7266 7.8125C10.5703 7.96354 10.4427 8.11719 10.3438 8.27344C10.2448 8.42969 10.1771 8.5651 10.1406 8.67969L10.0781 8.84375L8.64062 8.28125C8.66146 8.20833 8.6901 8.11198 8.72656 7.99219C8.76302 7.8724 8.875 7.66146 9.0625 7.35938C9.25 7.05729 9.46615 6.79167 9.71094 6.5625C9.95573 6.33333 10.3099 6.1224 10.7734 5.92969C11.237 5.73698 11.7526 5.64062 12.3203 5.64062C13.3672 5.64062 14.2292 5.9401 14.9062 6.53906C15.5833 7.13281 15.9219 7.84635 15.9219 8.67969C15.9219 9.26823 15.8151 9.77344 15.6016 10.1953C15.388 10.612 15.1276 10.9453 14.8203 11.1953C14.5182 11.4401 14.2109 11.6719 13.8984 11.8906C13.5911 12.1094 13.3307 12.3854 13.1172 12.7188C12.9036 13.0469 12.7969 13.4349 12.7969 13.8828V14.0391H11.3594C11.3073 13.7734 11.2812 13.5339 11.2812 13.3203ZM11.3516 16.8516C11.1432 16.6432 11.0391 16.401 11.0391 16.125C11.0391 15.8438 11.1432 15.599 11.3516 15.3906C11.5599 15.1823 11.8021 15.0781 12.0781 15.0781C12.3542 15.0781 12.5964 15.1823 12.8047 15.3906C13.013 15.599 13.1172 15.8438 13.1172 16.125C13.1172 16.401 13.013 16.6432 12.8047 16.8516C12.5964 17.0547 12.3542 17.1562 12.0781 17.1562C11.8021 17.1562 11.5599 17.0547 11.3516 16.8516Z" fill="#5144DB"/>
</svg>
