<svg width="40" height="40" viewBox="0 0 40 40" fill="none" xmlns="http://www.w3.org/2000/svg">
<path d="M40 20C40 31.0457 31.0457 40 20 40C8.9543 40 0 31.0457 0 20C0 8.9543 8.9543 0 20 0C31.0457 0 40 8.9543 40 20Z" fill="#ED1E24"/>
<path d="M21.2842 20.704H20.3482C18.8775 20.704 17.4513 19.6801 17.4513 17.1199C17.4513 14.4534 18.7885 13.3653 20.1476 13.3653H21.2842V20.704ZM22.7549 12H20.2147C17.7184 12 15.602 13.8136 15.602 17.3335C15.602 19.4455 16.627 21.0028 18.4544 21.7704L15.0447 27.6585C14.9331 27.8506 15.0447 28 15.2227 28H16.805C16.9385 28 17.0282 27.9574 17.0727 27.8506L20.1702 22.0693H21.2842V27.8506C21.2842 27.9148 21.3513 28 21.4403 28H22.822C22.9555 28 23 27.9358 23 27.8296V12.2131C23 12.0642 22.911 12 22.7549 12Z" fill="white"/>
</svg>
