<svg width="40" height="40" viewBox="0 0 40 40" fill="none" xmlns="http://www.w3.org/2000/svg">
<circle cx="20" cy="20" r="20" fill="#4E6297"/>
<path d="M10 19.9986C10.0012 24.918 13.5784 29.1067 18.437 29.8776V22.8886H15.9V19.9986H18.44V17.7986C18.3265 16.7562 18.6825 15.7172 19.4116 14.9636C20.1408 14.2099 21.1674 13.8196 22.213 13.8986C22.9635 13.9107 23.7122 13.9776 24.453 14.0986V16.5576H23.189C22.7538 16.5006 22.3164 16.6443 21.9998 16.9483C21.6832 17.2522 21.5218 17.6835 21.561 18.1206V19.9986H24.332L23.889 22.8896H21.561V29.8776C26.8155 29.0472 30.5001 24.2484 29.9455 18.9577C29.3909 13.667 24.7913 9.73656 19.4788 10.0138C14.1664 10.2911 10.0008 14.6789 10 19.9986Z" fill="white"/>
</svg>
