<svg width="62" height="61" viewBox="0 0 62 61" fill="none" xmlns="http://www.w3.org/2000/svg">
<g clip-path="url(#clip0)">
<path d="M35.1068 2.27653L32.0184 0.517407L32.0176 0.519764C31.6955 0.323691 31.2724 0.333942 30.8074 0.602365L13.3582 10.6768C12.3511 11.2582 11.5347 12.8182 11.5347 14.161V57.3694C11.5347 58.146 11.8087 58.6778 12.234 58.8774L12.2334 58.8789L15.3045 60.6278L35.1068 2.27653Z" fill="url(#paint0_linear)"/>
<path d="M33.8783 50.4224L16.429 60.4967C15.4219 61.0782 14.6055 60.461 14.6055 59.1182V15.9098C14.6055 14.567 15.4219 13.0071 16.429 12.4256L33.8783 2.3513C34.8854 1.7698 35.7019 2.38701 35.7019 3.72983V46.9381C35.7019 48.281 34.8854 49.8409 33.8783 50.4224Z" fill="#6568EF"/>
<path d="M16.5894 15.3038L33.8786 5.3219V44.7636L16.5894 54.7456V15.3038Z" fill="white"/>
<path d="M24.8218 51.4461L28.1161 49.5441V52.8536L24.8218 54.7557V51.4461Z" fill="white"/>
<path d="M20.1807 22.8209L30.6778 16.7604V27.3059L20.1807 33.3664V22.8209Z" fill="#DEA861"/>
<path d="M21.7729 35.1211L29.0852 30.8994V32.9751L21.7729 37.197V35.1211Z" fill="#D7D1EB"/>
<path d="M22.8945 40.1236L27.9639 37.1969V40.0993L22.8945 43.0262V40.1236Z" fill="#86E9C5"/>
<path d="M24.3892 20.4105L26.4691 19.2097V22.5002L24.3892 23.701V20.4105Z" fill="#CC8241"/>
<path d="M20.9346 28.8778L24.3892 26.8833V27.5334L20.9346 29.5279V28.8778Z" fill="#8B451C"/>
<path d="M20.9346 30.0382L23.5574 28.5239V29.0174L20.9346 30.5317V30.0382Z" fill="#8B451C"/>
<path d="M20.9346 30.9341L23.5574 29.4197V29.9133L20.9346 31.4275V30.9341Z" fill="#8B451C"/>
<path d="M45.3034 32.1631L45.3038 32.1623L41.8512 30.1747L41.8511 30.1752C40.4882 29.453 38.7376 29.5559 36.8276 30.6587C32.4819 33.1677 28.959 39.8988 28.959 45.6931C28.959 48.8787 30.0252 51.115 31.7062 52.0685L31.705 52.0711L34.8596 53.8923L34.8628 53.8855C36.2494 54.7143 38.0685 54.6545 40.0619 53.5036C44.4077 50.9945 47.9305 44.2634 47.9305 38.4691C47.9304 35.3597 46.9151 33.1537 45.3034 32.1631Z" fill="url(#paint1_linear)"/>
<path d="M46.3601 45.7101C48.9753 39.5724 48.2804 33.3973 44.8081 31.9178C41.3357 30.4383 36.4008 34.2145 33.7856 40.3523C31.1703 46.4901 31.8652 52.6651 35.3375 54.1446C38.8099 55.6241 43.7448 51.8479 46.3601 45.7101Z" fill="#E8E6FF"/>
<path d="M44.9602 42.6584L42.9116 41.4575C42.4957 41.197 41.9473 41.1982 41.392 41.2742C41.5429 41.1005 41.7348 40.9456 41.958 40.8168C42.6934 40.3922 43.8851 40.2621 44.8233 40.4303L45.698 37.4743L43.6249 36.2589C43.4094 36.1983 43.1726 36.1655 42.9215 36.1573V35.3415L40.8484 34.1262L39.1622 35.0997V37.5846C37.5394 38.8765 36.5252 40.7636 36.5252 42.6399C36.5252 43.9082 36.9537 44.4335 37.5509 44.606L39.0496 45.4713C39.4884 45.9539 40.1901 45.9419 40.8973 45.8226C40.7041 46.0942 40.4272 46.3373 40.0878 46.5334C39.1622 47.0678 37.7803 47.1219 36.8675 46.6007L35.9673 49.5377L38.0404 50.753C38.3729 50.925 38.7524 51.0276 39.1622 51.0619V52.1051L41.2353 53.3204L42.9216 52.3468V49.7605C44.519 48.5509 45.7109 46.6456 45.7109 44.5665C45.7108 43.4859 45.4095 42.9257 44.9602 42.6584Z" fill="url(#paint2_linear)"/>
<path d="M42.9206 49.7603V52.3466L41.2345 53.3201V50.7169C40.0428 51.1851 38.889 51.192 38.0396 50.7528L38.9398 47.8157C39.8525 48.3368 41.2345 48.2827 42.16 47.7484C42.8446 47.3532 43.2757 46.7662 43.2757 46.1407C43.2757 44.1291 38.5975 48.0472 38.5975 43.855C38.5975 41.9787 39.6117 40.0915 41.2345 38.7996V36.3148L42.9206 35.3413V37.8093C43.9603 37.3611 44.9492 37.2635 45.6971 37.474L44.8223 40.4301C43.8841 40.2618 42.6925 40.392 41.9571 40.8166C41.3993 41.1387 41.0317 41.6213 41.0317 42.1623C41.0317 44.1231 45.71 40.3065 45.71 44.5663C45.71 46.6455 44.5181 48.5506 42.9206 49.7603Z" fill="#86E9C5"/>
<path d="M39.1616 37.5848L41.2347 38.8002V36.3153L39.1616 35.1V37.5848Z" fill="#63CDA6"/>
<path d="M38.9401 47.8158L36.867 46.6005L35.9668 49.5374L38.0399 50.7528L38.9401 47.8158Z" fill="#1E9469"/>
</g>
<defs>
<linearGradient id="paint0_linear" x1="22.6746" y1="20.809" x2="24.9893" y2="16.7996" gradientUnits="userSpaceOnUse">
<stop stop-color="#2C1FB9"/>
<stop offset="1" stop-color="#9086FF"/>
</linearGradient>
<linearGradient id="paint1_linear" x1="38.9785" y1="41.1564" x2="42.2124" y2="35.5553" gradientUnits="userSpaceOnUse">
<stop stop-color="#5144D9"/>
<stop offset="1" stop-color="#BAB3FF"/>
</linearGradient>
<linearGradient id="paint2_linear" x1="41.9461" y1="42.1572" x2="42.9553" y2="40.4091" gradientUnits="userSpaceOnUse">
<stop stop-color="#2DB583"/>
<stop offset="1" stop-color="#A7EFD4"/>
</linearGradient>
<clipPath id="clip0">
<rect width="60.3303" height="60.3303" fill="white" transform="translate(0.76123 0.385254)"/>
</clipPath>
</defs>
</svg>
