<svg width="63" height="64" viewBox="0 0 63 64" fill="none" xmlns="http://www.w3.org/2000/svg">
<path d="M45.8331 13.9914L45.8338 13.99L39.3556 10.2604L39.3552 10.2615C36.798 8.90634 33.5132 9.09934 29.9294 11.1686C21.7753 15.8764 15.165 28.5065 15.165 39.3787C15.165 45.356 17.1657 49.552 20.3198 51.3412L20.3177 51.346L26.2367 54.7632L26.2428 54.7505C28.8445 56.3056 32.2577 56.1934 35.9982 54.0339C44.1525 49.326 50.7626 36.696 50.7626 25.8238C50.7624 19.9893 48.8573 15.8501 45.8331 13.9914Z" fill="url(#paint0_linear)"/>
<path d="M47.8149 39.4106C52.722 27.8939 51.4182 16.3073 44.9028 13.5312C38.3874 10.755 29.1276 17.8406 24.2205 29.3573C19.3134 40.874 20.6172 52.4606 27.1326 55.2367C33.648 58.0128 42.9078 50.9272 47.8149 39.4106Z" fill="#E8E6FF"/>
<path d="M45.189 33.6842L41.3449 31.4309C40.5647 30.9421 39.5357 30.9444 38.4936 31.087C38.7768 30.7611 39.137 30.4704 39.5558 30.2288C40.9356 29.4321 43.1717 29.1879 44.932 29.5036L46.5733 23.9569L42.6834 21.6766C42.2791 21.5628 41.8347 21.5013 41.3636 21.4859V19.9552L37.4736 17.6748L34.3098 19.5014V24.1639C31.2648 26.588 29.3618 30.129 29.3618 33.6496C29.3618 36.0293 30.1657 37.0151 31.2863 37.3387L34.0985 38.9623C34.9218 39.8678 36.2386 39.8454 37.5654 39.6214C37.2028 40.131 36.6833 40.5873 36.0465 40.9552C34.3098 41.9578 31.7167 42.0594 30.0041 41.0815L28.3149 46.5924L32.2049 48.8727C32.8287 49.1955 33.5408 49.3879 34.3098 49.4523V51.4097L38.1997 53.69L41.3637 51.8633V47.0104C44.3611 44.7407 46.5975 41.1658 46.5975 37.2645C46.5974 35.237 46.032 34.1858 45.189 33.6842Z" fill="url(#paint1_linear)"/>
<path d="M41.3623 47.01V51.8628L38.1985 53.6894V48.8049C35.9624 49.6835 33.7974 49.6964 32.2036 48.8723L33.8928 43.3612C35.6054 44.339 38.1985 44.2375 39.9351 43.2349C41.2197 42.4934 42.0286 41.392 42.0286 40.2184C42.0286 36.4438 33.2505 43.7956 33.2505 35.9295C33.2505 32.4089 35.1535 28.8679 38.1985 26.4438V21.7813L41.3623 19.9547V24.5855C43.3131 23.7447 45.1686 23.5615 46.5719 23.9565L44.9306 29.5032C43.1701 29.1874 40.9342 29.4317 39.5543 30.2284C38.5078 30.8327 37.818 31.7383 37.818 32.7534C37.818 36.4326 46.5961 29.2713 46.5961 37.2642C46.5961 41.1655 44.3598 44.7402 41.3623 47.01Z" fill="#86E9C5"/>
<path d="M34.3086 24.1641L38.1985 26.4445V21.782L34.3086 19.5016V24.1641Z" fill="#63CDA6"/>
<path d="M33.8926 43.3614L30.0026 41.0811L28.3135 46.5919L32.2034 48.8723L33.8926 43.3614Z" fill="#1E9469"/>
<defs>
<linearGradient id="paint0_linear" x1="33.9654" y1="30.8662" x2="40.0333" y2="20.3563" gradientUnits="userSpaceOnUse">
<stop stop-color="#5144D9"/>
<stop offset="1" stop-color="#BAB3FF"/>
</linearGradient>
<linearGradient id="paint1_linear" x1="39.5334" y1="32.7438" x2="41.427" y2="29.4638" gradientUnits="userSpaceOnUse">
<stop stop-color="#2DB583"/>
<stop offset="1" stop-color="#A7EFD4"/>
</linearGradient>
</defs>
</svg>
