<svg width="53" height="54" viewBox="0 0 53 54" fill="none" xmlns="http://www.w3.org/2000/svg">
<g clip-path="url(#clip0)">
<path d="M22.4604 51.6331L45.9108 4.9279L38.7208 0.776747C38.4854 0.578273 38.1915 0.481871 37.8547 0.509194L22.8653 1.72674L7.87598 17.8175C6.98352 18.7754 6.3916 20.253 6.3916 21.5226V26.834C6.3916 36.8453 9.687 44.2097 15.1322 47.3969L15.1301 47.4009L15.3572 47.5319C15.362 47.5346 15.3668 47.5376 15.3716 47.5403L22.4604 51.6331Z" fill="url(#paint0_linear)"/>
<path d="M45.9103 4.9279L38.7203 0.776747C38.4848 0.578273 38.191 0.481871 37.8542 0.509194L22.8647 1.72674L30.0505 5.87398L45.9103 4.9279Z" fill="url(#paint1_linear)"/>
<path d="M30.0508 5.87398L15.0615 21.9646C14.1691 22.9227 13.5771 24.4001 13.5771 25.6697V30.9811C13.5771 45.112 20.137 53.9802 30.0508 53.2518C39.9646 42.5326 46.5245 26.0898 46.5245 11.9589V6.64757C46.5245 5.37795 45.9326 4.58395 45.0401 4.65643L30.0508 5.87398Z" fill="#28C8A2"/>
<path d="M28.9268 51.9666C24.8204 51.9666 21.3405 50.0693 18.8633 46.4796C16.273 42.7263 14.9038 37.3671 14.9038 30.9813V25.67C14.9038 24.7342 15.3678 23.5825 16.0323 22.8694L30.4954 7.34352C30.6083 7.22247 30.7624 7.14783 30.9272 7.13442L44.4798 6.03359C44.6647 6.01895 44.847 6.08153 44.9833 6.20711C45.1195 6.33279 45.1971 6.50962 45.1971 6.695V11.9592C45.1971 18.5698 43.7163 25.8437 40.9148 32.9942C38.1188 40.1305 34.216 46.614 29.6284 51.7438C29.505 51.8818 29.3297 51.9619 29.1447 51.965C29.0717 51.966 28.9991 51.9666 28.9268 51.9666ZM31.2911 8.43641L17.0033 23.7741C16.5702 24.239 16.2311 25.0718 16.2311 25.6701V30.9814C16.2311 37.0966 17.5189 42.1952 19.9556 45.726C22.1552 48.9134 25.2237 50.6109 28.8345 50.6392C37.8369 40.4485 43.8698 24.9464 43.8698 11.9593V7.41466L31.2911 8.43641Z" fill="white"/>
<path d="M29.5838 37.5786L24.3812 33.6456C23.707 33.136 23.5002 32.2136 23.8921 31.4649C24.3875 30.5184 25.6141 30.2433 26.4663 30.8875L29.5837 33.2442L40.8636 11.692C41.1515 11.1418 41.8645 10.9818 42.3599 11.3563C42.7518 11.6525 42.8721 12.1888 42.6443 12.6241L29.5838 37.5786Z" fill="white"/>
<path d="M30.0509 43.1632C24.4264 46.4104 19.8506 42.9512 19.8506 35.452C19.8506 27.9527 24.4264 19.2097 30.0509 15.9624C31.8037 14.9505 33.533 14.5553 35.0519 14.8195C35.8927 14.9657 36.6627 15.3091 37.3398 15.8406C38.0175 16.3719 38.5922 17.0838 39.0484 17.9562C39.8352 19.4611 40.2512 21.4382 40.2512 23.6737C40.2512 31.1729 35.6753 39.9159 30.0509 43.1632ZM30.0509 19.0273C25.694 21.5428 22.1493 28.3154 22.1493 34.1248C22.1493 39.9341 25.694 42.6138 30.0509 40.0983C34.4079 37.5828 37.9526 30.8101 37.9526 25.0008C37.9526 23.2683 37.6308 21.7372 37.022 20.573C36.6685 19.8968 36.223 19.345 35.6975 18.933C35.1721 18.5208 34.5752 18.2545 33.9234 18.1413C32.7481 17.9367 31.4091 18.2431 30.0509 19.0273Z" fill="white"/>
</g>
<defs>
<linearGradient id="paint0_linear" x1="17.5872" y1="30.4082" x2="20.102" y2="26.0524" gradientUnits="userSpaceOnUse">
<stop stop-color="#0EAD8A"/>
<stop offset="1" stop-color="#BAEFDC"/>
</linearGradient>
<linearGradient id="paint1_linear" x1="22.8648" y1="3.18937" x2="45.9103" y2="3.18937" gradientUnits="userSpaceOnUse">
<stop stop-color="#BBF0DD"/>
<stop offset="1" stop-color="#0FAE8B"/>
</linearGradient>
<clipPath id="clip0">
<rect width="52.789" height="52.789" fill="white" transform="translate(0.0639648 0.504517)"/>
</clipPath>
</defs>
</svg>
