<svg width="53" height="53" viewBox="0 0 53 53" fill="none" xmlns="http://www.w3.org/2000/svg">
<g clip-path="url(#clip0)">
<path d="M25.7498 40.9918C25.7498 35.0786 22.1547 28.2094 17.7198 25.6489C15.4903 24.3618 13.6047 24.455 12.0183 25.525L8.58057 27.5099L19.442 49.5288L23.1699 47.3644C24.7562 46.3244 25.7498 44.0998 25.7498 40.9918Z" fill="url(#paint0_linear)"/>
<path d="M19.1026 49.6905C22.6462 48.1806 23.3553 41.8789 20.6865 35.6153C18.0176 29.3516 12.9814 25.4979 9.43778 27.0078C5.89416 28.5177 5.18503 34.8194 7.85389 41.0831C10.5228 47.3467 15.559 51.2004 19.1026 49.6905Z" fill="#6568EF"/>
<path d="M20.1488 43.4269C20.1488 48.7212 16.9299 51.1546 12.9591 48.8621C8.98842 46.5696 5.76953 40.4194 5.76953 35.1251C5.76953 29.8309 8.98842 27.3974 12.9591 29.6899C16.9299 31.9823 20.1488 38.1327 20.1488 43.4269Z" fill="url(#paint1_linear)"/>
<path d="M15.3282 42.5904C15.3282 45.7405 13.413 47.1884 11.0503 45.8244C8.68771 44.4604 6.77246 40.8009 6.77246 37.6508C6.77246 34.5007 8.68771 33.0528 11.0503 34.4167C13.413 35.7808 15.3282 39.4403 15.3282 42.5904Z" fill="url(#paint2_linear)"/>
<path d="M47.1478 27.7593C47.1478 33.0536 43.9289 35.487 39.9582 33.1945C35.9874 30.902 32.7686 24.7518 32.7686 19.4575C32.7686 14.1633 35.9874 11.7298 39.9582 14.0223C43.9289 16.3147 47.1478 22.465 47.1478 27.7593Z" fill="url(#paint3_linear)"/>
<path d="M46.826 28.8071C46.826 22.8939 43.2308 16.0247 38.796 13.4642C36.5665 12.1771 34.681 12.2703 33.0945 13.3403L29.6567 15.3252L40.5182 37.3442L43.864 35.4015C43.9948 35.3349 44.1223 35.2609 44.2461 35.1797C45.8324 34.1397 46.826 31.9151 46.826 28.8071Z" fill="url(#paint4_linear)"/>
<path d="M40.1695 37.4983C43.7131 35.9884 44.4222 29.6867 41.7534 23.423C39.0845 17.1593 34.0483 13.3057 30.5047 14.8155C26.9611 16.3254 26.2519 22.6271 28.9208 28.8908C31.5897 35.1545 36.6259 39.0082 40.1695 37.4983Z" fill="#6568EF"/>
<path d="M40.3271 29.0615C40.3271 32.7405 38.0903 34.4314 35.331 32.8385C32.5718 31.2454 30.335 26.9716 30.335 23.2926C30.335 19.6136 32.5718 17.9226 35.331 19.5157C38.0903 21.1086 40.3271 25.3825 40.3271 29.0615Z" fill="url(#paint5_linear)"/>
<path d="M37.451 5.11725C37.5075 5.12529 37.5382 5.12972 37.5382 5.12972L36.8301 4.72092C36.8301 4.72092 36.83 4.72081 36.8299 4.72081C36.8299 4.72081 36.8298 4.72071 36.8297 4.72071C36.8297 4.72071 30.224 0.944029 30.0654 0.922996C27.6482 -0.202997 24.8851 -0.0894804 22.5385 1.2653C15.8992 5.09848 11.7749 12.2421 11.7749 19.9084V25.7752C12.7363 25.7874 13.7935 26.0977 14.9033 26.7384C15.9552 27.3457 16.9588 28.1978 17.8796 29.2198V29.2408L19.4921 28.3098V23.3639C19.4921 16.2719 23.3075 9.66339 29.4494 6.11735C30.3846 5.5774 31.4023 5.28366 32.4276 5.23437C32.9314 6.17148 33.2056 7.2353 33.2056 8.35501V13.3532C34.1554 13.3741 35.1972 13.6839 36.2903 14.315C37.3589 14.932 38.3778 15.8009 39.3102 16.8444V16.8676L40.9228 15.9366V11.8104C40.9231 9.09869 39.6377 6.6472 37.451 5.11725Z" fill="url(#paint6_linear)"/>
<path d="M19.492 28.3097V23.3639C19.492 16.2719 23.3075 9.66338 29.4494 6.11734C31.5075 4.92908 33.965 4.92897 36.0233 6.11734C38.0815 7.30561 39.3102 9.43397 39.3102 11.8105V16.8677L40.9227 15.9367V11.8105C40.9227 8.85092 39.3925 6.20065 36.8295 4.72081C34.2663 3.24096 31.206 3.24107 28.643 4.72081C22.0037 8.55399 17.8794 15.6976 17.8794 23.3639V29.2408L19.492 28.3097Z" fill="#6568EF"/>
<path d="M32.4388 52.945C31.7374 52.945 31.0359 52.7644 30.4102 52.4032L22.7123 47.9588C22.3267 47.7361 22.1946 47.2431 22.4173 46.8574C22.64 46.4717 23.1331 46.3396 23.5186 46.5623L31.2165 51.0067C31.9707 51.4421 32.9075 51.4419 33.6612 51.0067L40.5196 47.047C40.9055 46.8244 41.3985 46.9565 41.6211 47.3421C41.8437 47.7277 41.7115 48.2208 41.3259 48.4435L34.4675 52.4032C33.8418 52.7644 33.1404 52.945 32.4388 52.945Z" fill="#6568EF"/>
<path d="M41.6431 49.0581C41.0461 49.0581 40.4653 48.7483 40.1454 48.194C39.6682 47.3676 39.9514 46.3109 40.7777 45.8339L44.0777 43.9286C44.904 43.4517 45.9607 43.7346 46.4379 44.561C46.915 45.3874 46.6318 46.4441 45.8055 46.9212L42.5055 48.8264C42.2333 48.9834 41.9363 49.0581 41.6431 49.0581Z" fill="#86E9C5"/>
</g>
<defs>
<linearGradient id="paint0_linear" x1="20.5189" y1="39.2172" x2="15.7309" y2="30.924" gradientUnits="userSpaceOnUse">
<stop stop-color="#2807A0"/>
<stop offset="1" stop-color="#5245DC"/>
</linearGradient>
<linearGradient id="paint1_linear" x1="12.9591" y1="48.4655" x2="12.9591" y2="32.1087" gradientUnits="userSpaceOnUse">
<stop stop-color="#D5C9F1"/>
<stop offset="1" stop-color="#F2EFFA"/>
</linearGradient>
<linearGradient id="paint2_linear" x1="11.0503" y1="45.6627" x2="11.0503" y2="32.0698" gradientUnits="userSpaceOnUse">
<stop stop-color="#7B61FF"/>
<stop offset="1" stop-color="#E7E2FF"/>
</linearGradient>
<linearGradient id="paint3_linear" x1="39.9582" y1="32.7979" x2="39.9582" y2="16.4411" gradientUnits="userSpaceOnUse">
<stop stop-color="#D5C9F1"/>
<stop offset="1" stop-color="#F2EFFA"/>
</linearGradient>
<linearGradient id="paint4_linear" x1="41.5951" y1="27.0325" x2="36.8071" y2="18.7393" gradientUnits="userSpaceOnUse">
<stop stop-color="#5144DB"/>
<stop offset="1" stop-color="#27059F"/>
</linearGradient>
<linearGradient id="paint5_linear" x1="30.335" y1="26.177" x2="40.3271" y2="26.177" gradientUnits="userSpaceOnUse">
<stop stop-color="#3217B4"/>
<stop offset="1" stop-color="#5245DB"/>
</linearGradient>
<linearGradient id="paint6_linear" x1="24.1924" y1="18.7831" x2="28.5348" y2="11.2618" gradientUnits="userSpaceOnUse">
<stop stop-color="#2706A0"/>
<stop offset="1" stop-color="#5245DB"/>
</linearGradient>
<clipPath id="clip0">
<rect width="52.789" height="52.789" fill="white" transform="translate(0.0639648 0.155884)"/>
</clipPath>
</defs>
</svg>
