<svg width="53" height="53" viewBox="0 0 53 53" fill="none" xmlns="http://www.w3.org/2000/svg">
<g clip-path="url(#clip0)">
<path d="M44.7942 1.70171L42.4328 0.338368C42.0374 0.079475 41.509 0.0865891 40.9282 0.421882L9.73359 18.432C8.50862 19.1393 7.51562 21.0366 7.51562 22.6699V49.6488C7.51562 50.6138 7.86236 51.2703 8.3985 51.5005L10.5344 52.7336L44.7942 1.70171Z" fill="url(#paint0_linear)"/>
<path d="M43.2753 34.6687L12.0808 52.6788C10.8558 53.386 9.86279 52.6353 9.86279 51.002V24.023C9.86279 22.3898 10.8558 20.4924 12.0808 19.7852L43.2753 1.77505C44.5003 1.06787 45.4933 1.81856 45.4933 3.45182V30.4308C45.4933 32.0641 44.5003 33.9615 43.2753 34.6687Z" fill="url(#paint1_linear)"/>
<path d="M42.1189 11.9946L13.2354 28.6706V24.3179L42.1189 7.64209V11.9946Z" fill="white"/>
<path d="M25.3304 31.8645L13.2354 38.8476V35.5648L25.3304 28.5817V31.8645Z" fill="white"/>
<path d="M25.3304 37.7839L13.2354 44.767V41.4842L25.3304 34.5011V37.7839Z" fill="white"/>
<path d="M33.8492 24.5716C33.8492 26.7621 32.8961 28.6834 31.3912 29.5523C29.8863 30.4211 28.9331 29.6003 28.9331 27.4098C28.9331 25.2361 29.8862 23.3146 31.3912 22.4458C32.8961 21.577 33.8492 22.3978 33.8492 24.5716ZM30.3503 26.5917C30.3503 27.7956 30.739 28.3069 31.3912 27.9304C32.0433 27.5538 32.432 26.5937 32.432 25.3898C32.432 24.1859 32.0433 23.6914 31.3912 24.0678C30.7391 24.4444 30.3503 25.3878 30.3503 26.5917ZM39.1415 18.0215L32.8836 33.356L30.7893 34.5652L37.0471 19.2307L39.1415 18.0215ZM41.0477 25.1477C41.0477 27.3382 40.0946 29.2596 38.5897 30.1284C37.0848 30.9973 36.1316 30.1765 36.1316 27.9859C36.1316 25.8122 37.0847 23.8908 38.5897 23.0219C40.0946 22.153 41.0477 22.9739 41.0477 25.1477ZM37.5487 27.1677C37.5487 28.3716 37.9374 28.883 38.5897 28.5064C39.2418 28.1299 39.6305 27.1697 39.6305 25.9657C39.6305 24.7619 39.2418 24.2673 38.5897 24.6437C37.9375 25.0205 37.5487 25.9639 37.5487 27.1677Z" fill="white"/>
</g>
<defs>
<linearGradient id="paint0_linear" x1="16.9033" y1="27.5346" x2="19.7333" y2="22.6328" gradientUnits="userSpaceOnUse">
<stop stop-color="#0EAD8A"/>
<stop offset="1" stop-color="#BAEFDC"/>
</linearGradient>
<linearGradient id="paint1_linear" x1="27.678" y1="45.0412" x2="27.678" y2="-12.0396" gradientUnits="userSpaceOnUse">
<stop stop-color="#11C099"/>
<stop offset="1" stop-color="#86E9C5"/>
</linearGradient>
<clipPath id="clip0">
<rect width="52.789" height="52.789" fill="white" transform="translate(0.109863 0.155884)"/>
</clipPath>
</defs>
</svg>
