<svg width="55" height="49" viewBox="0 0 55 49" fill="none" xmlns="http://www.w3.org/2000/svg">
<path d="M39.1132 35.5803V11.2667L0.0893555 12.9402V37.2536C0.0892564 37.8108 0.36494 38.3679 0.916307 38.6863L16.3753 47.6115C17.4748 48.2462 18.8294 48.2462 19.9288 47.6115L38.2862 37.0129C38.8376 36.6945 39.1133 36.1374 39.1132 35.5803Z" fill="url(#paint0_linear)"/>
<path d="M0.91682 11.5075L19.2743 0.908792C20.3738 0.274055 21.7283 0.274055 22.8278 0.908792L38.2868 9.83406C39.3895 10.4707 39.3895 12.0623 38.2868 12.699L19.9293 23.2976C18.8298 23.9323 17.4753 23.9323 16.3758 23.2976L0.91682 14.3723C-0.185815 13.7357 -0.185815 12.1441 0.91682 11.5075Z" fill="url(#paint1_linear)"/>
<path d="M6.86865 8.07102L26.5854 19.4544L31.8156 16.4348L12.0988 5.05139L6.86865 8.07102Z" fill="#DEA861"/>
<path d="M9.99522 6.2644L29.712 17.6478L28.6875 18.2393L8.9707 6.85592L9.99522 6.2644Z" fill="#CC8241"/>
<path d="M26.5859 19.4544V23.7737L31.8161 20.7541V16.4348L26.5859 19.4544Z" fill="#CC8241"/>
<path d="M47.7465 17.2187L47.747 17.2177L43.6758 14.8739L43.6755 14.8745C42.0684 14.023 40.004 14.1442 37.7517 15.4446C32.6273 18.4032 28.4731 26.3405 28.4731 33.1731C28.4731 36.9296 29.7304 39.5665 31.7127 40.6909L31.7113 40.694L35.4311 42.8416L35.4349 42.8337C37.07 43.811 39.215 43.7404 41.5657 42.3832C46.6902 39.4246 50.8444 31.4873 50.8444 24.6547C50.8445 20.9881 49.6472 18.3868 47.7465 17.2187Z" fill="url(#paint2_linear)"/>
<path d="M48.9938 33.1913C52.0777 25.9536 51.2583 18.672 47.1637 16.9274C43.069 15.1827 37.2497 19.6356 34.1659 26.8733C31.082 34.1109 31.9014 41.3925 35.996 43.1371C40.0906 44.8818 45.9099 40.4289 48.9938 33.1913Z" fill="#5144DB"/>
<path d="M46.9309 32.3127C49.1569 27.0884 48.5654 21.8324 45.6098 20.5731C42.6543 19.3138 38.4538 22.528 36.2278 27.7522C34.0018 32.9765 34.5932 38.2324 37.5488 39.4918C40.5044 40.7511 44.7049 37.5369 46.9309 32.3127Z" fill="#F2EFFA"/>
<path d="M42.6163 30.4736C43.0473 29.4619 42.9328 28.4441 42.3605 28.2003C41.7881 27.9564 40.9747 28.5788 40.5437 29.5905C40.1126 30.6021 40.2272 31.6199 40.7995 31.8638C41.3718 32.1077 42.1852 31.4853 42.6163 30.4736Z" fill="#5144DB"/>
<path d="M41.0615 30.8865V23.3747C41.0615 23.0956 41.2877 22.8694 41.5668 22.8694C41.8458 22.8694 42.0721 23.0956 42.0721 23.3747V29.1363L46.175 26.7674C46.4167 26.6277 46.7257 26.7108 46.8652 26.9524C47.0046 27.1941 46.9218 27.5031 46.6801 27.6426L41.0615 30.8865Z" fill="#5144DB"/>
<defs>
<linearGradient id="paint0_linear" x1="15.0331" y1="29.6773" x2="20.3937" y2="29.6773" gradientUnits="userSpaceOnUse">
<stop stop-color="#CC8241"/>
<stop offset="1" stop-color="#DEA861"/>
</linearGradient>
<linearGradient id="paint1_linear" x1="8.73757" y1="5.83065" x2="28.8129" y2="17.4213" gradientUnits="userSpaceOnUse">
<stop stop-color="#DEA861"/>
<stop offset="1" stop-color="#EBCBA0"/>
</linearGradient>
<linearGradient id="paint2_linear" x1="40.2883" y1="27.8236" x2="44.1018" y2="21.2186" gradientUnits="userSpaceOnUse">
<stop stop-color="#2C1EB9"/>
<stop offset="1" stop-color="#9085FF"/>
</linearGradient>
</defs>
</svg>
