<svg width="76" height="76" viewBox="0 0 76 76" fill="none" xmlns="http://www.w3.org/2000/svg">
<path d="M37.9999 69.6666C20.5109 69.6666 6.33325 55.4889 6.33325 37.9999C6.33325 20.5109 20.5109 6.33325 37.9999 6.33325C55.4889 6.33325 69.6666 20.5109 69.6666 37.9999C69.6474 55.481 55.481 69.6474 37.9999 69.6666ZM37.9493 63.3333H37.9999C51.9862 63.3193 63.3149 51.9735 63.3079 37.9873C63.3009 24.001 51.9609 12.6666 37.9746 12.6666C23.9883 12.6666 12.6482 24.001 12.6413 37.9873C12.6343 51.9735 23.963 63.3193 37.9493 63.3333ZM31.6666 53.8333L18.9999 41.1666L23.4649 36.7016L31.6666 44.8716L52.5349 24.0033L56.9999 28.4999L31.6666 53.8333Z" fill="#2E3A59"/>
<path d="M37.9999 69.6666C20.5109 69.6666 6.33325 55.4889 6.33325 37.9999C6.33325 20.5109 20.5109 6.33325 37.9999 6.33325C55.4889 6.33325 69.6666 20.5109 69.6666 37.9999C69.6474 55.481 55.481 69.6474 37.9999 69.6666ZM37.9493 63.3333H37.9999C51.9862 63.3193 63.3149 51.9735 63.3079 37.9873C63.3009 24.001 51.9609 12.6666 37.9746 12.6666C23.9883 12.6666 12.6482 24.001 12.6413 37.9873C12.6343 51.9735 23.963 63.3193 37.9493 63.3333ZM31.6666 53.8333L18.9999 41.1666L23.4649 36.7016L31.6666 44.8716L52.5349 24.0033L56.9999 28.4999L31.6666 53.8333Z" fill="url(#paint0_linear)"/>
<defs>
<linearGradient id="paint0_linear" x1="13.0044" y1="-29.7667" x2="96.3693" y2="0.32596" gradientUnits="userSpaceOnUse">
<stop stop-color="#7065E3"/>
<stop offset="1" stop-color="#65E3C8"/>
</linearGradient>
</defs>
</svg>
