<svg width="11" height="16" viewBox="0 0 11 16" fill="none" xmlns="http://www.w3.org/2000/svg">
<path d="M1.10547 12.3333L0.716431 12.0192L0.462857 12.3333L0.716431 12.6474L1.10547 12.3333ZM9.67886 9C9.67886 8.72386 9.455 8.5 9.17886 8.5C8.90272 8.5 8.67886 8.72386 8.67886 9L9.67886 9ZM2.86934 9.35258L0.716431 12.0192L1.49451 12.6474L3.64741 9.98075L2.86934 9.35258ZM0.716431 12.6474L2.86934 15.3141L3.64741 14.6859L1.49451 12.0192L0.716431 12.6474ZM1.10547 12.8333L5.84553 12.8333L5.84553 11.8333L1.10547 11.8333L1.10547 12.8333ZM5.84553 12.8333C7.96262 12.8333 9.67886 11.1171 9.67886 9L8.67886 9C8.67886 10.5648 7.41033 11.8333 5.84553 11.8333L5.84553 12.8333Z" fill="#5144DB"/>
<path d="M10.1885 3.66667L10.5586 4.00283L10.8639 3.66667L10.5586 3.3305L10.1885 3.66667ZM0.605909 7C0.605909 7.27614 0.829767 7.5 1.10591 7.5C1.38205 7.5 1.60591 7.27614 1.60591 7L0.605909 7ZM8.13658 6.6695L10.5586 4.00283L9.81835 3.3305L7.39633 5.99717L8.13658 6.6695ZM10.5586 3.3305L8.13658 0.663833L7.39634 1.33617L9.81835 4.00283L10.5586 3.3305ZM10.1885 3.16667L4.43924 3.16667L4.43924 4.16667L10.1885 4.16667L10.1885 3.16667ZM4.43924 3.16667C2.32215 3.16667 0.60591 4.88291 0.605909 7L1.60591 7C1.60591 5.43519 2.87444 4.16667 4.43924 4.16667L4.43924 3.16667Z" fill="#5144DB"/>
</svg>
